<mxGraphModel dx="1009" dy="0" grid="1" gridSize="10" guides="1" tooltips="1" connect="1" arrows="1" fold="1" page="1" pageScale="1" pageWidth="827" pageHeight="1169" math="1" shadow="0"><root><mxCell id="0"/><mxCell id="1" parent="0"/><mxCell id="238" value="" style="ellipse;whiteSpace=wrap;html=1;labelBorderColor=#3AF0A7;" parent="1" vertex="1"><mxGeometry x="352.5" y="663" width="40" height="100" as="geometry"/></mxCell><mxCell id="273" value="" style="ellipse;whiteSpace=wrap;html=1;labelBorderColor=#3AF0A7;" parent="1" vertex="1"><mxGeometry x="340" y="713" width="255" height="50" as="geometry"/></mxCell><mxCell id="274" value="" style="ellipse;whiteSpace=wrap;html=1;labelBorderColor=#3AF0A7;" parent="1" vertex="1"><mxGeometry x="520" y="578" width="69" height="85" as="geometry"/></mxCell><mxCell id="310" value="" style="childLayout=tableLayout;recursiveResize=0;shadow=0;fillColor=none;" parent="1" vertex="1"><mxGeometry x="282.5" y="526" width="300" height="234" as="geometry"/></mxCell><mxCell id="311" style="shape=tableRow;horizontal=0;startSize=0;swimlaneHead=0;swimlaneBody=0;top=0;left=0;bottom=0;right=0;dropTarget=0;collapsible=0;recursiveResize=0;expand=0;fontStyle=0;fillColor=none;strokeColor=inherit;" parent="310" vertex="1"><mxGeometry width="300" height="47" as="geometry"/></mxCell><mxCell id="312" style="connectable=0;recursiveResize=0;strokeColor=inherit;fillColor=none;align=center;whiteSpace=wrap;html=1;flipH=0;" parent="311" vertex="1"><mxGeometry width="60" height="47" as="geometry"><mxRectangle width="60" height="47" as="alternateBounds"/></mxGeometry></mxCell><mxCell id="313" value="00" style="connectable=0;recursiveResize=0;strokeColor=inherit;fillColor=none;align=center;whiteSpace=wrap;html=1;" parent="311" vertex="1"><mxGeometry x="60" width="60" height="47" as="geometry"><mxRectangle width="60" height="47" as="alternateBounds"/></mxGeometry></mxCell><mxCell id="314" value="01" style="connectable=0;recursiveResize=0;strokeColor=inherit;fillColor=none;align=center;whiteSpace=wrap;html=1;" parent="311" vertex="1"><mxGeometry x="120" width="60" height="47" as="geometry"><mxRectangle width="60" height="47" as="alternateBounds"/></mxGeometry></mxCell><mxCell id="315" value="11" style="connectable=0;recursiveResize=0;strokeColor=inherit;fillColor=none;align=center;whiteSpace=wrap;html=1;" parent="311" vertex="1"><mxGeometry x="180" width="60" height="47" as="geometry"><mxRectangle width="60" height="47" as="alternateBounds"/></mxGeometry></mxCell><mxCell id="316" value="10" style="connectable=0;recursiveResize=0;strokeColor=inherit;fillColor=none;align=center;whiteSpace=wrap;html=1;" parent="311" vertex="1"><mxGeometry x="240" width="60" height="47" as="geometry"><mxRectangle width="60" height="47" as="alternateBounds"/></mxGeometry></mxCell><mxCell id="317" style="shape=tableRow;horizontal=0;startSize=0;swimlaneHead=0;swimlaneBody=0;top=0;left=0;bottom=0;right=0;dropTarget=0;collapsible=0;recursiveResize=0;expand=0;fontStyle=0;fillColor=none;strokeColor=inherit;" parent="310" vertex="1"><mxGeometry y="47" width="300" height="47" as="geometry"/></mxCell><mxCell id="318" value="10" style="connectable=0;recursiveResize=0;strokeColor=inherit;fillColor=none;align=center;whiteSpace=wrap;html=1;" parent="317" vertex="1"><mxGeometry width="60" height="47" as="geometry"><mxRectangle width="60" height="47" as="alternateBounds"/></mxGeometry></mxCell><mxCell id="319" style="connectable=0;recursiveResize=0;strokeColor=inherit;fillColor=none;align=center;whiteSpace=wrap;html=1;" parent="317" vertex="1"><mxGeometry x="60" width="60" height="47" as="geometry"><mxRectangle width="60" height="47" as="alternateBounds"/></mxGeometry></mxCell><mxCell id="320" value="" style="connectable=0;recursiveResize=0;strokeColor=inherit;fillColor=none;align=center;whiteSpace=wrap;html=1;" parent="317" vertex="1"><mxGeometry x="120" width="60" height="47" as="geometry"><mxRectangle width="60" height="47" as="alternateBounds"/></mxGeometry></mxCell><mxCell id="321" style="connectable=0;recursiveResize=0;strokeColor=inherit;fillColor=none;align=center;whiteSpace=wrap;html=1;" parent="317" vertex="1"><mxGeometry x="180" width="60" height="47" as="geometry"><mxRectangle width="60" height="47" as="alternateBounds"/></mxGeometry></mxCell><mxCell id="322" value="1" style="connectable=0;recursiveResize=0;strokeColor=inherit;fillColor=none;align=center;whiteSpace=wrap;html=1;" parent="317" vertex="1"><mxGeometry x="240" width="60" height="47" as="geometry"><mxRectangle width="60" height="47" as="alternateBounds"/></mxGeometry></mxCell><mxCell id="323" value="" style="shape=tableRow;horizontal=0;startSize=0;swimlaneHead=0;swimlaneBody=0;top=0;left=0;bottom=0;right=0;dropTarget=0;collapsible=0;recursiveResize=0;expand=0;fontStyle=0;fillColor=none;strokeColor=inherit;" parent="310" vertex="1"><mxGeometry y="94" width="300" height="47" as="geometry"/></mxCell><mxCell id="324" value="11" style="connectable=0;recursiveResize=0;strokeColor=inherit;fillColor=none;align=center;whiteSpace=wrap;html=1;" parent="323" vertex="1"><mxGeometry width="60" height="47" as="geometry"><mxRectangle width="60" height="47" as="alternateBounds"/></mxGeometry></mxCell><mxCell id="325" value="" style="connectable=0;recursiveResize=0;strokeColor=inherit;fillColor=none;align=center;whiteSpace=wrap;html=1;" parent="323" vertex="1"><mxGeometry x="60" width="60" height="47" as="geometry"><mxRectangle width="60" height="47" as="alternateBounds"/></mxGeometry></mxCell><mxCell id="326" value="" style="connectable=0;recursiveResize=0;strokeColor=inherit;fillColor=none;align=center;whiteSpace=wrap;html=1;" parent="323" vertex="1"><mxGeometry x="120" width="60" height="47" as="geometry"><mxRectangle width="60" height="47" as="alternateBounds"/></mxGeometry></mxCell><mxCell id="327" value="" style="connectable=0;recursiveResize=0;strokeColor=inherit;fillColor=none;align=center;whiteSpace=wrap;html=1;" parent="323" vertex="1"><mxGeometry x="180" width="60" height="47" as="geometry"><mxRectangle width="60" height="47" as="alternateBounds"/></mxGeometry></mxCell><mxCell id="328" value="1" style="connectable=0;recursiveResize=0;strokeColor=inherit;fillColor=none;align=center;whiteSpace=wrap;html=1;" parent="323" vertex="1"><mxGeometry x="240" width="60" height="47" as="geometry"><mxRectangle width="60" height="47" as="alternateBounds"/></mxGeometry></mxCell><mxCell id="329" style="shape=tableRow;horizontal=0;startSize=0;swimlaneHead=0;swimlaneBody=0;top=0;left=0;bottom=0;right=0;dropTarget=0;collapsible=0;recursiveResize=0;expand=0;fontStyle=0;fillColor=none;strokeColor=inherit;" parent="310" vertex="1"><mxGeometry y="141" width="300" height="46" as="geometry"/></mxCell><mxCell id="330" value="01" style="connectable=0;recursiveResize=0;strokeColor=inherit;fillColor=none;align=center;whiteSpace=wrap;html=1;" parent="329" vertex="1"><mxGeometry width="60" height="46" as="geometry"><mxRectangle width="60" height="46" as="alternateBounds"/></mxGeometry></mxCell><mxCell id="331" value="1" style="connectable=0;recursiveResize=0;strokeColor=inherit;fillColor=none;align=center;whiteSpace=wrap;html=1;" parent="329" vertex="1"><mxGeometry x="60" width="60" height="46" as="geometry"><mxRectangle width="60" height="46" as="alternateBounds"/></mxGeometry></mxCell><mxCell id="332" value="" style="connectable=0;recursiveResize=0;strokeColor=inherit;fillColor=none;align=center;whiteSpace=wrap;html=1;" parent="329" vertex="1"><mxGeometry x="120" width="60" height="46" as="geometry"><mxRectangle width="60" height="46" as="alternateBounds"/></mxGeometry></mxCell><mxCell id="333" value="" style="connectable=0;recursiveResize=0;strokeColor=inherit;fillColor=none;align=center;whiteSpace=wrap;html=1;" parent="329" vertex="1"><mxGeometry x="180" width="60" height="46" as="geometry"><mxRectangle width="60" height="46" as="alternateBounds"/></mxGeometry></mxCell><mxCell id="334" style="connectable=0;recursiveResize=0;strokeColor=inherit;fillColor=none;align=center;whiteSpace=wrap;html=1;" parent="329" vertex="1"><mxGeometry x="240" width="60" height="46" as="geometry"><mxRectangle width="60" height="46" as="alternateBounds"/></mxGeometry></mxCell><mxCell id="335" style="shape=tableRow;horizontal=0;startSize=0;swimlaneHead=0;swimlaneBody=0;top=0;left=0;bottom=0;right=0;dropTarget=0;collapsible=0;recursiveResize=0;expand=0;fontStyle=0;fillColor=none;strokeColor=inherit;" parent="310" vertex="1"><mxGeometry y="187" width="300" height="47" as="geometry"/></mxCell><mxCell id="336" value="00" style="connectable=0;recursiveResize=0;strokeColor=inherit;fillColor=none;align=center;whiteSpace=wrap;html=1;" parent="335" vertex="1"><mxGeometry width="60" height="47" as="geometry"><mxRectangle width="60" height="47" as="alternateBounds"/></mxGeometry></mxCell><mxCell id="337" value="1" style="connectable=0;recursiveResize=0;strokeColor=inherit;fillColor=none;align=center;whiteSpace=wrap;html=1;" parent="335" vertex="1"><mxGeometry x="60" width="60" height="47" as="geometry"><mxRectangle width="60" height="47" as="alternateBounds"/></mxGeometry></mxCell><mxCell id="338" value="1" style="connectable=0;recursiveResize=0;strokeColor=inherit;fillColor=none;align=center;whiteSpace=wrap;html=1;" parent="335" vertex="1"><mxGeometry x="120" width="60" height="47" as="geometry"><mxRectangle width="60" height="47" as="alternateBounds"/></mxGeometry></mxCell><mxCell id="339" value="1" style="connectable=0;recursiveResize=0;strokeColor=inherit;fillColor=none;align=center;whiteSpace=wrap;html=1;" parent="335" vertex="1"><mxGeometry x="180" width="60" height="47" as="geometry"><mxRectangle width="60" height="47" as="alternateBounds"/></mxGeometry></mxCell><mxCell id="340" value="1" style="connectable=0;recursiveResize=0;strokeColor=inherit;fillColor=none;align=center;whiteSpace=wrap;html=1;" parent="335" vertex="1"><mxGeometry x="240" width="60" height="47" as="geometry"><mxRectangle width="60" height="47" as="alternateBounds"/></mxGeometry></mxCell><mxCell id="341" value="" style="endArrow=none;html=1;exitX=0;exitY=0;exitDx=0;exitDy=0;entryX=0.196;entryY=-0.005;entryDx=0;entryDy=0;entryPerimeter=0;" parent="310" source="311" target="317" edge="1"><mxGeometry width="50" height="50" relative="1" as="geometry"><mxPoint x="-20" y="-40" as="sourcePoint"/><mxPoint x="30" y="-90" as="targetPoint"/></mxGeometry></mxCell><mxCell id="342" value="$$I_0I_1$$" style="text;html=1;align=center;verticalAlign=middle;resizable=0;points=[];autosize=1;strokeColor=none;fillColor=none;" parent="1" vertex="1"><mxGeometry x="392.5" y="476" width="80" height="30" as="geometry"/></mxCell><mxCell id="343" value="$$I_2 $$&lt;br&gt;$$I_3$$" style="text;html=1;align=center;verticalAlign=middle;resizable=0;points=[];autosize=1;strokeColor=none;fillColor=none;flipV=1;fontStyle=4;textDirection=ltr;horizontal=1;" parent="1" vertex="1"><mxGeometry x="202.5" y="623" width="70" height="40" as="geometry"/></mxCell></root></mxGraphModel>